<svg width="24" height="24" viewBox="0 0 24 24" fill="none" xmlns="http://www.w3.org/2000/svg">
<path d="M18.7928 7.42421L16.6949 5.2159C16.63 5.14734 16.5529 5.09297 16.4679 5.05592C16.383 5.01886 16.2919 4.99986 16.2 5H7.8C7.70806 4.99986 7.617 5.01886 7.53207 5.05592C7.44713 5.09297 7.36999 5.14734 7.3051 5.2159L5.2072 7.42421C5.14146 7.49246 5.08928 7.5738 5.05371 7.6635C5.01814 7.75319 4.99988 7.84944 5 7.94663V17.5263C5 17.9172 5.1475 18.292 5.41005 18.5684C5.6726 18.8447 6.0287 19 6.4 19H17.6C17.9713 19 18.3274 18.8447 18.5899 18.5684C18.8525 18.292 19 17.9172 19 17.5263V7.94663C19.0001 7.84944 18.9819 7.75319 18.9463 7.6635C18.9107 7.5738 18.8585 7.49246 18.7928 7.42421ZM8.0898 6.47368H15.9102L16.6102 7.21053H7.3898L8.0898 6.47368ZM15.5 13.1053V13.8421H8.5V10.8947H9.9V12.3684H14.1V10.8947H15.5V13.1053Z" fill="white"/>
</svg>
