<svg width="20" height="20" viewBox="0 0 20 20" fill="none" xmlns="http://www.w3.org/2000/svg">
<path d="M9 15H12.5C12.6326 15 12.7598 14.9473 12.8536 14.8536C12.9473 14.7598 13 14.6326 13 14.5V13H9V15ZM9.121 16L10.561 17.44C10.724 17.603 10.842 17.795 10.915 18H14.5C14.8978 18 15.2794 17.842 15.5607 17.5607C15.842 17.2794 16 16.8978 16 16.5V8H11.5C11.1022 8 10.7206 7.84196 10.4393 7.56066C10.158 7.27936 10 6.89782 10 6.5V2H5.5C5.10217 2 4.72064 2.15804 4.43934 2.43934C4.15803 2.72064 4 3.10218 4 3.5V9.027C4.164 9.009 4.33067 9 4.5 9C5.195 9 5.853 9.157 6.44 9.439C6.7212 9.15798 7.10245 9.00008 7.5 9H12.5C12.8978 9 13.2794 9.15804 13.5607 9.43934C13.842 9.72064 14 10.1022 14 10.5V14.5C14 14.8978 13.842 15.2794 13.5607 15.5607C13.2794 15.842 12.8978 16 12.5 16H9.121ZM13 12V10.5C13 10.3674 12.9473 10.2402 12.8536 10.1464C12.7598 10.0527 12.6326 10 12.5 10H9V12H13ZM11 2.25V6.5C11 6.63261 11.0527 6.75979 11.1464 6.85355C11.2402 6.94732 11.3674 7 11.5 7H15.75L11 2.25ZM7.303 15.596C7.83291 14.8873 8.07474 14.0043 7.9798 13.1245C7.88486 12.2447 7.46022 11.4336 6.79132 10.8543C6.12242 10.275 5.25893 9.97055 4.37462 10.0022C3.49031 10.0339 2.65083 10.3994 2.02513 11.0251C1.39943 11.6508 1.03395 12.4903 1.00225 13.3746C0.970549 14.2589 1.27498 15.1224 1.85428 15.7913C2.43357 16.4602 3.24473 16.8849 4.1245 16.9798C5.00426 17.0747 5.88734 16.8329 6.596 16.303L9.146 18.853C9.19242 18.8995 9.24755 18.9364 9.30822 18.9616C9.3689 18.9867 9.43395 18.9997 9.49965 18.9998C9.56534 18.9998 9.63041 18.9869 9.69112 18.9618C9.75183 18.9367 9.80701 18.8999 9.8535 18.8535C9.89999 18.8071 9.93688 18.752 9.96206 18.6913C9.98724 18.6306 10.0002 18.5655 10.0003 18.4999C10.0003 18.4342 9.98743 18.3691 9.96233 18.3084C9.93723 18.2477 9.90042 18.1925 9.854 18.146L7.303 15.596ZM7 13.5C7 14.163 6.73661 14.7989 6.26777 15.2678C5.79893 15.7366 5.16304 16 4.5 16C3.83696 16 3.20107 15.7366 2.73223 15.2678C2.26339 14.7989 2 14.163 2 13.5C2 12.837 2.26339 12.2011 2.73223 11.7322C3.20107 11.2634 3.83696 11 4.5 11C5.16304 11 5.79893 11.2634 6.26777 11.7322C6.73661 12.2011 7 12.837 7 13.5Z" fill="white"/>
</svg>
