<svg width="24" height="24" viewBox="0 0 24 24" fill="none" xmlns="http://www.w3.org/2000/svg">
<path d="M11.965 16.2C12.21 16.2 12.4172 16.1153 12.5866 15.9459C12.756 15.7765 12.8405 15.5695 12.84 15.325C12.8395 15.0805 12.7551 14.8733 12.5866 14.7034C12.4181 14.5335 12.2109 14.4491 11.965 14.45C11.7191 14.4509 11.5121 14.5356 11.3441 14.7041C11.1761 14.8726 11.0914 15.0795 11.09 15.325C11.0886 15.5705 11.1733 15.7777 11.3441 15.9466C11.5149 16.1155 11.7219 16.2 11.965 16.2ZM11.335 13.505H12.63C12.63 13.12 12.6739 12.8167 12.7616 12.595C12.8493 12.3733 13.0971 12.07 13.505 11.685C13.8083 11.3817 14.0475 11.0928 14.2225 10.8184C14.3975 10.544 14.485 10.2145 14.485 9.83C14.485 9.17666 14.2458 8.675 13.7675 8.325C13.2892 7.975 12.7233 7.8 12.07 7.8C11.405 7.8 10.8655 7.975 10.4516 8.325C10.0377 8.675 9.7488 9.095 9.585 9.585L10.74 10.04C10.7983 9.83 10.9297 9.6025 11.1341 9.3575C11.3385 9.1125 11.6505 8.99 12.07 8.99C12.4433 8.99 12.7233 9.0922 12.91 9.2966C13.0967 9.501 13.19 9.72546 13.19 9.97C13.19 10.2033 13.12 10.4222 12.98 10.6266C12.84 10.831 12.665 11.0205 12.455 11.195C11.9417 11.65 11.6267 11.9942 11.51 12.2275C11.3933 12.4608 11.335 12.8867 11.335 13.505ZM12 19C11.0317 19 10.1217 18.8164 9.27 18.4491C8.41833 18.0818 7.6775 17.583 7.0475 16.9525C6.4175 16.322 5.91887 15.5812 5.5516 14.73C5.18433 13.8788 5.00047 12.9688 5 12C4.99953 11.0312 5.1834 10.1212 5.5516 9.27C5.9198 8.4188 6.41843 7.67797 7.0475 7.0475C7.67657 6.41704 8.4174 5.9184 9.27 5.5516C10.1226 5.1848 11.0326 5.00094 12 5C12.9674 4.99907 13.8774 5.18294 14.73 5.5516C15.5826 5.92027 16.3234 6.4189 16.9525 7.0475C17.5816 7.6761 18.0804 8.41693 18.4491 9.27C18.8178 10.1231 19.0014 11.0331 19 12C18.9986 12.9669 18.8147 13.8769 18.4484 14.73C18.0821 15.5831 17.5834 16.3239 16.9525 16.9525C16.3216 17.5811 15.5807 18.08 14.73 18.4491C13.8793 18.8182 12.9693 19.0019 12 19Z" fill="white"/>
</svg>
