<svg width="40" height="40" viewBox="0 0 40 40" fill="none"
    xmlns="http://www.w3.org/2000/svg">
    <path
        d="M23.1122 9.315C23.1124 9.72381 23.032 10.1286 22.8757 10.5064C22.7193 10.8841 22.4901 11.2274 22.2012 11.5165C21.9122 11.8057 21.5691 12.0351 21.1914 12.1917C20.8138 12.3482 20.409 12.4289 20.0002 12.429C19.5914 12.4291 19.1866 12.3487 18.8089 12.1924C18.4311 12.0361 18.0879 11.8069 17.7987 11.5179C17.5096 11.229 17.2801 10.8859 17.1236 10.5082C16.967 10.1306 16.8864 9.72581 16.8862 9.317C16.886 8.49138 17.2137 7.69948 17.7973 7.11549C18.3809 6.5315 19.1726 6.20327 19.9982 6.203C20.8238 6.20274 21.6158 6.53046 22.1997 7.11407C22.7837 7.69769 23.112 8.48938 23.1122 9.315Z"
        fill="#111111" />
    <path
        d="M20.0002 23.111C21.7189 23.111 23.1122 21.7177 23.1122 19.999C23.1122 18.2803 21.7189 16.887 20.0002 16.887C18.2815 16.887 16.8882 18.2803 16.8882 19.999C16.8882 21.7177 18.2815 23.111 20.0002 23.111Z"
        fill="#111111" />
    <path
        d="M20.0002 33.797C21.7189 33.797 23.1122 32.4037 23.1122 30.685C23.1122 28.9663 21.7189 27.573 20.0002 27.573C18.2815 27.573 16.8882 28.9663 16.8882 30.685C16.8882 32.4037 18.2815 33.797 20.0002 33.797Z"
        fill="#111111" />
</svg>