<svg width="203" height="203" viewBox="0 0 203 203" fill="none" xmlns="http://www.w3.org/2000/svg">
<path d="M16.917 122.646C16.917 127.644 17.9015 132.594 19.8143 137.212C21.7271 141.83 24.5308 146.026 28.0652 149.56C35.2033 156.698 44.8847 160.708 54.9795 160.708H156.479C163.973 160.722 171.193 157.893 176.683 152.792C182.173 147.691 185.524 140.698 186.061 133.224C186.598 125.749 184.28 118.35 179.574 112.517C174.869 106.684 168.128 102.853 160.709 101.796C160.791 87.4064 155.631 73.4792 146.191 62.6178C136.752 51.7564 123.681 44.7043 109.42 42.7798C95.1595 40.8552 80.6861 44.19 68.7054 52.1606C56.7247 60.1312 48.0568 72.1922 44.322 86.0889C36.4145 88.3981 29.469 93.2094 24.5278 99.8007C19.5866 106.392 16.9161 114.408 16.917 122.646Z" stroke="#DE070F" stroke-width="7" stroke-linejoin="round"/>
<path d="M84.584 93.0417L118.417 126.875M84.584 126.875L118.417 93.0417" stroke="#DE070F" stroke-width="7" stroke-linecap="round" stroke-linejoin="round"/>
</svg>
