<svg width="28" height="28" viewBox="0 0 28 28" fill="none" xmlns="http://www.w3.org/2000/svg">
<path d="M17.5725 18H27.5725V20H17.5725V18ZM17.5725 22H27.5725V24H17.5725V22ZM17.5725 26H27.5725V28H17.5725V26ZM13.5725 18C13.0438 18.0123 12.5181 17.9173 12.0273 17.7206C11.5364 17.524 11.0905 17.2298 10.7166 16.8559C10.3427 16.4819 10.0485 16.0361 9.85184 15.5452C9.65518 15.0543 9.56014 14.5287 9.57245 14C9.56014 13.4713 9.65518 12.9457 9.85184 12.4548C10.0485 11.9639 10.3427 11.5181 10.7166 11.1442C11.0905 10.7702 11.5364 10.4761 12.0273 10.2794C12.5181 10.0827 13.0438 9.98769 13.5725 10C14.1011 9.98769 14.6268 10.0827 15.1176 10.2794C15.6085 10.4761 16.0544 10.7702 16.4283 11.1442C16.8022 11.5181 17.0964 11.9639 17.2931 12.4548C17.4897 12.9457 17.5848 13.4713 17.5725 14H19.5725C19.5725 12.8133 19.2206 11.6533 18.5613 10.6666C17.902 9.67989 16.9649 8.91085 15.8686 8.45673C14.7722 8.0026 13.5658 7.88378 12.4019 8.11529C11.238 8.3468 10.1689 8.91825 9.32981 9.75736C8.4907 10.5965 7.91925 11.6656 7.68774 12.8295C7.45623 13.9933 7.57505 15.1997 8.02917 16.2961C8.4833 17.3925 9.25233 18.3295 10.239 18.9888C11.2257 19.6481 12.3858 20 13.5725 20V18Z" fill="white"/>
<path d="M26.8774 9.044L24.5174 4.956C24.2863 4.55528 23.9234 4.24708 23.4905 4.08389C23.0576 3.9207 22.5816 3.91261 22.1434 4.061L19.7094 4.885C19.29 4.60248 18.8517 4.34921 18.3974 4.127L17.8934 1.607C17.8026 1.1538 17.5576 0.74604 17.2001 0.45307C16.8426 0.1601 16.3946 1.76778e-06 15.9324 0H11.2124C10.7501 4.80373e-05 10.302 0.160288 9.94449 0.453457C9.58696 0.746625 9.34205 1.15461 9.25143 1.608L8.74743 4.127C8.2882 4.34698 7.8448 4.59859 7.42043 4.88L5.00043 4.061C4.56253 3.91313 4.08694 3.92148 3.6545 4.08465C3.22207 4.24781 2.8595 4.55571 2.62843 4.956L0.26843 9.044C0.0372415 9.44429 -0.0481493 9.91231 0.0267808 10.3685C0.101711 10.8246 0.332335 11.2407 0.67943 11.546L2.61043 13.243C2.59343 13.495 2.57243 13.745 2.57243 14C2.57243 14.258 2.58176 14.5133 2.60043 14.766L0.68043 16.454C0.333011 16.759 0.102004 17.175 0.0267067 17.6312C-0.0485902 18.0873 0.0364749 18.5555 0.26743 18.956L2.62743 23.044C2.85857 23.4447 3.22148 23.7529 3.65435 23.9161C4.08722 24.0793 4.56327 24.0874 5.00143 23.939L7.43543 23.115C7.85479 23.3979 8.29317 23.6515 8.74743 23.874L9.25043 26.392C9.34109 26.8456 9.58614 27.2537 9.94388 27.5469C10.3016 27.84 10.7499 28.0002 11.2124 28H13.5724V26H11.2124L10.5024 22.45C9.5203 22.0851 8.60857 21.5532 7.80743 20.878L4.36043 22.044L2.00043 17.956L4.72543 15.561C4.53845 14.5269 4.53608 13.4679 4.71843 12.433L2.00043 10.043L4.36043 5.956L7.78743 7.116C8.59387 6.43922 9.5128 5.90919 10.5024 5.55L11.2124 2H15.9324L16.6424 5.55C17.6246 5.91495 18.5363 6.44676 19.3374 7.122L22.7844 5.956L25.1444 10.044L22.3464 12.496L23.6644 14L26.4644 11.546C26.8118 11.241 27.0429 10.825 27.1182 10.3688C27.1934 9.91267 27.1084 9.44451 26.8774 9.044Z" fill="white"/>
</svg>
