<svg width="24" height="24" viewBox="0 0 24 24" fill="none" xmlns="http://www.w3.org/2000/svg">
<path d="M4.25 14C5.14 17.45 8.27 20 12 20C16.42 20 20 16.42 20 12C20 7.58 16.42 4 12 4C9.61 4 7.47 5.05 6 6.71L4 9" stroke="white" stroke-width="2" stroke-linecap="round" stroke-linejoin="round"/>
<path d="M3.5 9.99995H7.79289C8.23835 9.99995 8.46143 9.46138 8.14645 9.1464L3.85355 4.8535C3.53857 4.53852 3 4.7616 3 5.20706V9.49995C3 9.77609 3.22386 9.99995 3.5 9.99995Z" fill="white"/>
<path d="M12 14C13.1046 14 14 13.1046 14 12C14 10.8954 13.1046 10 12 10C10.8954 10 10 10.8954 10 12C10 13.1046 10.8954 14 12 14Z" fill="white"/>
</svg>
