<svg width="15" height="14" viewBox="0 0 15 14" fill="none"
    xmlns="http://www.w3.org/2000/svg">
    <path
        d="M14.3193 7.77001V6.17001L12.3793 5.53001L11.9293 4.44001L12.8093 2.60001L11.6793 1.47001L9.86934 2.38001L8.77934 1.93001L8.08934 0.0100098H6.48934L5.85934 1.95001L4.74934 2.40001L2.90934 1.52001L1.77934 2.65001L2.68934 4.46001L2.23934 5.55001L0.319336 6.23001V7.82001L2.25934 8.46001L2.70934 9.55001L1.82934 11.39L2.95934 12.52L4.76934 11.61L5.85934 12.06L6.54934 13.98H8.13934L8.76934 12.04L9.87934 11.59L11.7193 12.47L12.8493 11.34L11.9293 9.53001L12.3993 8.44001L14.3193 7.75001V7.77001ZM7.31934 10C5.65934 10 4.31934 8.66001 4.31934 7.00001C4.31934 5.34001 5.65934 4.00001 7.31934 4.00001C8.97934 4.00001 10.3193 5.34001 10.3193 7.00001C10.3193 8.66001 8.97934 10 7.31934 10Z"
        fill="white" />
</svg>